# xmcd
#
# Track frame offsets:
#	182
#	15807
#	28362
#	42205
#	57215
#	70422
#	82662
#	95522
#	109215
#	122572
#	135852
#	151232
#	165927
#	181142
#	195727
#	209470
#	223927
#	239160
#	252590
#	268192
#	282010
#	296157
#	310875
#	325215
#	336840
#
# Disc length: 4673 seconds
#
# Revision: 1
# Processed by: cddbd v1.4PL0 Copyright (c) Steve Scherf et al.
# Submitted via: audiograbber 1.81.03
#
DISCID=6e123f19
DTITLE=Various Artist - Good Morning Blues - Anthology 1920-42
DYEAR=1995
DGENRE=Blues
TTITLE0=Mamie Smith - Crazy Blues
TTITLE1=Ed Andrews - Time Ain't Gonna Make Me Stay
TTITLE2=Papa Carlie Jackson - Salty Dog Blues
TTITLE3=Ma Rainey - See See Rider
TTITLE4=Alberta Hunter - Nobody Knows The Way I Feel Dis Mornin
TTITLE5=Lonnie Johnson - Mr. Johnson's Blues
TTITLE6=Chippie Hill - Trouble In Mind
TTITLE7=Blind Lemon Jefferson - Match Box Blues
TTITLE8=De Ford Bailey - Pan American Blues
TTITLE9=Texas Alexander - Section Gang Blues
TTITLE10=Luke Jordan - Cocaine Blues
TTITLE11=Jim Jackson - Kansas City Blues (Part 1)
TTITLE12=Blind Willie Johnson - Dark Was The Night Cold Was The Ground
TTITLE13=Meade Lux Lewis - Honky Tonk Train Blues
TTITLE14=William Moore - Old Country Rock
TTITLE15=Tommy Johnson - Big Road Blues
TTITLE16=Ishman Bracey - Saturday Blues
TTITLE17=Barbecue Bob - Ease It To Me Blues
TTITLE18=Henry Thomas - Bull-Doze Blues
TTITLE19=Scrapper Blackwell - Kokomo Blues
TTITLE20=Cow Cow Davenport - Cow Cow Blues
TTITLE21=Frank Stokes - Tain't Nobody's Business If I Do (Part 2)
TTITLE22=Furry Lewis - I Will Turn Your Money Green
TTITLE23=Blind Willie McTell - Statesboro Blues
TTITLE24=Georgia Tom and Tampa Red - It's Tight Like That
EXTD=
EXTT0=
EXTT1=
EXTT2=
EXTT3=
EXTT4=
EXTT5=
EXTT6=
EXTT7=
EXTT8=
EXTT9=
EXTT10=
EXTT11=
EXTT12=
EXTT13=
EXTT14=
EXTT15=
EXTT16=
EXTT17=
EXTT18=
EXTT19=
EXTT20=
EXTT21=
EXTT22=
EXTT23=
EXTT24=
PLAYORDER=
